<mxfile host="app.diagrams.net" agent="Mozilla/5.0 (Windows NT 10.0; Win64; x64) AppleWebKit/537.36 (KHTML, like Gecko) Chrome/134.0.0.0 Safari/537.36" version="26.1.0">
  <diagram name="Page-1" id="TH4sx-84aAAMV4N-GDxy">
    <mxGraphModel dx="737" dy="348" grid="1" gridSize="10" guides="1" tooltips="1" connect="1" arrows="1" fold="1" page="1" pageScale="1" pageWidth="850" pageHeight="1100" math="0" shadow="0">
      <root>
        <mxCell id="0" />
        <mxCell id="1" parent="0" />
        <mxCell id="nSzqFxMRTiKcpk6UzPOw-3" value="" style="edgeStyle=orthogonalEdgeStyle;rounded=0;orthogonalLoop=1;jettySize=auto;html=1;" edge="1" parent="1" source="nSzqFxMRTiKcpk6UzPOw-1" target="nSzqFxMRTiKcpk6UzPOw-2">
          <mxGeometry relative="1" as="geometry" />
        </mxCell>
        <mxCell id="nSzqFxMRTiKcpk6UzPOw-1" value="Inicio" style="ellipse;whiteSpace=wrap;html=1;" vertex="1" parent="1">
          <mxGeometry x="70" y="20" width="100" height="50" as="geometry" />
        </mxCell>
        <mxCell id="nSzqFxMRTiKcpk6UzPOw-5" value="" style="edgeStyle=orthogonalEdgeStyle;rounded=0;orthogonalLoop=1;jettySize=auto;html=1;exitX=0.504;exitY=0.863;exitDx=0;exitDy=0;exitPerimeter=0;" edge="1" parent="1" source="nSzqFxMRTiKcpk6UzPOw-2" target="nSzqFxMRTiKcpk6UzPOw-4">
          <mxGeometry relative="1" as="geometry" />
        </mxCell>
        <mxCell id="nSzqFxMRTiKcpk6UzPOw-2" value="&quot;Ingrese el numero a invertir:\n&quot;" style="shape=document;whiteSpace=wrap;html=1;boundedLbl=1;" vertex="1" parent="1">
          <mxGeometry x="45" y="100" width="150" height="45" as="geometry" />
        </mxCell>
        <mxCell id="nSzqFxMRTiKcpk6UzPOw-7" value="" style="edgeStyle=orthogonalEdgeStyle;rounded=0;orthogonalLoop=1;jettySize=auto;html=1;" edge="1" parent="1" source="nSzqFxMRTiKcpk6UzPOw-4" target="nSzqFxMRTiKcpk6UzPOw-6">
          <mxGeometry relative="1" as="geometry" />
        </mxCell>
        <mxCell id="nSzqFxMRTiKcpk6UzPOw-4" value="num = validar_int_min(0);" style="whiteSpace=wrap;html=1;" vertex="1" parent="1">
          <mxGeometry x="45" y="170" width="150" height="22.5" as="geometry" />
        </mxCell>
        <mxCell id="nSzqFxMRTiKcpk6UzPOw-9" value="" style="edgeStyle=orthogonalEdgeStyle;rounded=0;orthogonalLoop=1;jettySize=auto;html=1;exitX=0.5;exitY=0.828;exitDx=0;exitDy=0;exitPerimeter=0;" edge="1" parent="1" source="nSzqFxMRTiKcpk6UzPOw-6" target="nSzqFxMRTiKcpk6UzPOw-8">
          <mxGeometry relative="1" as="geometry">
            <mxPoint x="120" y="256" as="sourcePoint" />
          </mxGeometry>
        </mxCell>
        <mxCell id="nSzqFxMRTiKcpk6UzPOw-6" value="El numero inverso es: \n" style="shape=document;whiteSpace=wrap;html=1;boundedLbl=1;" vertex="1" parent="1">
          <mxGeometry x="50" y="220" width="140" height="36.25" as="geometry" />
        </mxCell>
        <mxCell id="nSzqFxMRTiKcpk6UzPOw-11" value="" style="edgeStyle=orthogonalEdgeStyle;rounded=0;orthogonalLoop=1;jettySize=auto;html=1;" edge="1" parent="1" source="nSzqFxMRTiKcpk6UzPOw-8" target="nSzqFxMRTiKcpk6UzPOw-10">
          <mxGeometry relative="1" as="geometry" />
        </mxCell>
        <mxCell id="nSzqFxMRTiKcpk6UzPOw-8" value="&amp;nbsp;invertir(num)" style="shape=step;perimeter=stepPerimeter;whiteSpace=wrap;html=1;fixedSize=1;size=10;" vertex="1" parent="1">
          <mxGeometry x="60" y="280" width="120" height="35.63" as="geometry" />
        </mxCell>
        <mxCell id="nSzqFxMRTiKcpk6UzPOw-13" value="" style="edgeStyle=orthogonalEdgeStyle;rounded=0;orthogonalLoop=1;jettySize=auto;html=1;" edge="1" parent="1" source="nSzqFxMRTiKcpk6UzPOw-10" target="nSzqFxMRTiKcpk6UzPOw-12">
          <mxGeometry relative="1" as="geometry" />
        </mxCell>
        <mxCell id="nSzqFxMRTiKcpk6UzPOw-10" value="return 0" style="whiteSpace=wrap;html=1;" vertex="1" parent="1">
          <mxGeometry x="70" y="340" width="100" height="26.56" as="geometry" />
        </mxCell>
        <mxCell id="nSzqFxMRTiKcpk6UzPOw-12" value="Fin" style="ellipse;whiteSpace=wrap;html=1;" vertex="1" parent="1">
          <mxGeometry x="70" y="390" width="100" height="40" as="geometry" />
        </mxCell>
        <mxCell id="nSzqFxMRTiKcpk6UzPOw-16" value="" style="edgeStyle=orthogonalEdgeStyle;rounded=0;orthogonalLoop=1;jettySize=auto;html=1;" edge="1" parent="1" source="nSzqFxMRTiKcpk6UzPOw-14" target="nSzqFxMRTiKcpk6UzPOw-15">
          <mxGeometry relative="1" as="geometry" />
        </mxCell>
        <mxCell id="nSzqFxMRTiKcpk6UzPOw-14" value="&amp;nbsp;invertir(num)" style="shape=step;perimeter=stepPerimeter;whiteSpace=wrap;html=1;fixedSize=1;size=10;" vertex="1" parent="1">
          <mxGeometry x="360" y="27.19000000000001" width="120" height="35.63" as="geometry" />
        </mxCell>
        <mxCell id="nSzqFxMRTiKcpk6UzPOw-18" value="" style="edgeStyle=orthogonalEdgeStyle;rounded=0;orthogonalLoop=1;jettySize=auto;html=1;" edge="1" parent="1" source="nSzqFxMRTiKcpk6UzPOw-15" target="nSzqFxMRTiKcpk6UzPOw-17">
          <mxGeometry relative="1" as="geometry" />
        </mxCell>
        <mxCell id="nSzqFxMRTiKcpk6UzPOw-25" style="edgeStyle=orthogonalEdgeStyle;rounded=0;orthogonalLoop=1;jettySize=auto;html=1;entryX=1;entryY=0.5;entryDx=0;entryDy=0;exitX=1;exitY=0.5;exitDx=0;exitDy=0;" edge="1" parent="1" source="nSzqFxMRTiKcpk6UzPOw-15" target="nSzqFxMRTiKcpk6UzPOw-26">
          <mxGeometry relative="1" as="geometry">
            <mxPoint x="440" y="266.25" as="targetPoint" />
            <mxPoint x="477.49655785323864" y="118.74712643678163" as="sourcePoint" />
            <Array as="points">
              <mxPoint x="505" y="114" />
              <mxPoint x="505" y="260" />
              <mxPoint x="430" y="260" />
              <mxPoint x="430" y="261" />
            </Array>
          </mxGeometry>
        </mxCell>
        <mxCell id="nSzqFxMRTiKcpk6UzPOw-15" value="num &amp;lt; 10" style="rhombus;whiteSpace=wrap;html=1;" vertex="1" parent="1">
          <mxGeometry x="377.5" y="87.49" width="85" height="52.51" as="geometry" />
        </mxCell>
        <mxCell id="nSzqFxMRTiKcpk6UzPOw-22" value="" style="edgeStyle=orthogonalEdgeStyle;rounded=0;orthogonalLoop=1;jettySize=auto;html=1;exitX=0.504;exitY=0.869;exitDx=0;exitDy=0;exitPerimeter=0;" edge="1" parent="1" source="nSzqFxMRTiKcpk6UzPOw-17" target="nSzqFxMRTiKcpk6UzPOw-19">
          <mxGeometry relative="1" as="geometry" />
        </mxCell>
        <mxCell id="nSzqFxMRTiKcpk6UzPOw-17" value="&quot;%d&quot;, num" style="shape=document;whiteSpace=wrap;html=1;boundedLbl=1;" vertex="1" parent="1">
          <mxGeometry x="385" y="158.75" width="70" height="33.75" as="geometry" />
        </mxCell>
        <mxCell id="nSzqFxMRTiKcpk6UzPOw-24" value="" style="edgeStyle=orthogonalEdgeStyle;rounded=0;orthogonalLoop=1;jettySize=auto;html=1;" edge="1" parent="1" source="nSzqFxMRTiKcpk6UzPOw-26" target="nSzqFxMRTiKcpk6UzPOw-23">
          <mxGeometry relative="1" as="geometry" />
        </mxCell>
        <mxCell id="nSzqFxMRTiKcpk6UzPOw-28" style="edgeStyle=orthogonalEdgeStyle;rounded=0;orthogonalLoop=1;jettySize=auto;html=1;" edge="1" parent="1" source="nSzqFxMRTiKcpk6UzPOw-19">
          <mxGeometry relative="1" as="geometry">
            <mxPoint x="420" y="280" as="targetPoint" />
          </mxGeometry>
        </mxCell>
        <mxCell id="nSzqFxMRTiKcpk6UzPOw-19" value="return" style="whiteSpace=wrap;html=1;" vertex="1" parent="1">
          <mxGeometry x="387.5" y="220" width="65" height="20" as="geometry" />
        </mxCell>
        <mxCell id="nSzqFxMRTiKcpk6UzPOw-31" value="" style="edgeStyle=orthogonalEdgeStyle;rounded=0;orthogonalLoop=1;jettySize=auto;html=1;exitX=0.5;exitY=0.843;exitDx=0;exitDy=0;exitPerimeter=0;" edge="1" parent="1" source="nSzqFxMRTiKcpk6UzPOw-23" target="nSzqFxMRTiKcpk6UzPOw-29">
          <mxGeometry relative="1" as="geometry" />
        </mxCell>
        <mxCell id="nSzqFxMRTiKcpk6UzPOw-23" value="&quot;%d&quot;, num % 10" style="shape=document;whiteSpace=wrap;html=1;boundedLbl=1;" vertex="1" parent="1">
          <mxGeometry x="372.5" y="280" width="95" height="50" as="geometry" />
        </mxCell>
        <mxCell id="nSzqFxMRTiKcpk6UzPOw-26" value="" style="ellipse;whiteSpace=wrap;html=1;aspect=fixed;" vertex="1" parent="1">
          <mxGeometry x="415" y="256.25" width="10" height="10" as="geometry" />
        </mxCell>
        <mxCell id="nSzqFxMRTiKcpk6UzPOw-33" value="" style="edgeStyle=orthogonalEdgeStyle;rounded=0;orthogonalLoop=1;jettySize=auto;html=1;" edge="1" parent="1" source="nSzqFxMRTiKcpk6UzPOw-29" target="nSzqFxMRTiKcpk6UzPOw-32">
          <mxGeometry relative="1" as="geometry" />
        </mxCell>
        <mxCell id="nSzqFxMRTiKcpk6UzPOw-29" value="return invertir(num/10)" style="whiteSpace=wrap;html=1;" vertex="1" parent="1">
          <mxGeometry x="350" y="350" width="140" height="25" as="geometry" />
        </mxCell>
        <mxCell id="nSzqFxMRTiKcpk6UzPOw-32" value="Fin" style="ellipse;whiteSpace=wrap;html=1;" vertex="1" parent="1">
          <mxGeometry x="377.5" y="410" width="85" height="40" as="geometry" />
        </mxCell>
      </root>
    </mxGraphModel>
  </diagram>
</mxfile>
